<svg xmlns="http://www.w3.org/2000/svg" viewBox="0 0 1200 560" font-family="ui-monospace,SFMono-Regular,Menlo,Consolas,monospace">
  <defs>
    <marker id="arrow" viewBox="0 0 10 10" refX="9" refY="5" markerWidth="7" markerHeight="7" orient="auto-start-reverse">
      <path d="M 0 1 L 9 5 L 0 9 z" fill="#39c5cf"/>
    </marker>
    <style>
      .title  { font: 600 15px ui-monospace,Menlo,monospace; fill: #e6edf3; }
      .muted  { font: 12px ui-monospace,Menlo,monospace; fill: #8b949e; }
      .tiny   { font: 10.5px ui-monospace,Menlo,monospace; fill: #8b949e; }
      .host   { font: 600 14px ui-monospace,Menlo,monospace; fill: #e6edf3; }
      .chip   { font: 11px ui-monospace,Menlo,monospace; fill: #7ee0e8; }
      .chipn  { font: 11px ui-monospace,Menlo,monospace; fill: #9fa8b3; }
      .link   { font: 11.5px ui-monospace,Menlo,monospace; fill: #39c5cf; }
      .term   { font: 10.5px ui-monospace,Menlo,monospace; fill: #3fb950; }
      .termw  { font: 10.5px ui-monospace,Menlo,monospace; fill: #c9d1d9; }
    </style>
  </defs>

  <rect x="0" y="0" width="1200" height="560" rx="16" fill="#0d1117"/>
  <rect x="0.5" y="0.5" width="1199" height="559" rx="16" fill="none" stroke="#30363d"/>

  <!-- ============ workstation ============ -->
  <rect x="50" y="90" width="330" height="380" rx="12" fill="#161b22" stroke="#30363d"/>
  <circle cx="76" cy="112" r="5" fill="#ff5f57"/>
  <circle cx="94" cy="112" r="5" fill="#febc2e"/>
  <circle cx="112" cy="112" r="5" fill="#28c840"/>
  <text x="215" y="116" text-anchor="middle" class="muted">clustermux</text>
  <line x1="50" y1="128" x2="380" y2="128" stroke="#30363d"/>

  <!-- navigator mini -->
  <rect x="66" y="142" width="128" height="310" rx="6" fill="#0d1117" stroke="#30363d"/>
  <text x="76" y="162" class="tiny" fill="#39c5cf" font-weight="600">NAVIGATOR</text>
  <line x1="66" y1="172" x2="194" y2="172" stroke="#21262d"/>
  <rect x="70" y="210" width="120" height="18" rx="3" fill="#39c5cf" opacity="0.16"/>
  <circle cx="80" cy="192" r="3.5" fill="#3fb950"/>
  <text x="90" y="196" class="tiny" fill="#c9d1d9">gpu/login-01</text>
  <circle cx="80" cy="219" r="3.5" fill="#3fb950"/>
  <text x="90" y="223" class="tiny" fill="#e6edf3">gpu/vscode-02</text>
  <text x="98" y="243" class="tiny" fill="#7ee0e8">Æ train</text>
  <text x="98" y="261" class="tiny" fill="#7ee0e8">Æ eval</text>
  <text x="98" y="279" class="tiny" fill="#9fa8b3">  squeue</text>
  <circle cx="80" cy="306" r="3.5" fill="#3fb950"/>
  <text x="90" y="310" class="tiny" fill="#c9d1d9">cpu/login</text>
  <circle cx="80" cy="333" r="3.5" fill="#f85149"/>
  <text x="90" y="337" class="tiny" fill="#8b949e">edge/dev</text>
  <line x1="66" y1="424" x2="194" y2="424" stroke="#21262d"/>
  <text x="76" y="442" class="tiny">‘“ select · Enter attach</text>

  <!-- remote pane mini -->
  <rect x="204" y="142" width="160" height="310" rx="6" fill="#0d1117" stroke="#30363d"/>
  <text x="214" y="162" class="tiny" fill="#39c5cf">gpu/vscode-02:train</text>
  <line x1="204" y1="172" x2="364" y2="172" stroke="#21262d"/>
  <text x="214" y="192" class="term">$ codex</text>
  <text x="214" y="210" class="termw">Reading 42 files&</text>
  <text x="214" y="226" class="termw"> scan src/cache</text>
  <text x="214" y="242" class="termw"> draft patch v1</text>
  <text x="214" y="258" class="term">¸ running tests&</text>
  <text x="214" y="282" class="tiny">tokens 84.2k · ctx 41%</text>
  <rect x="214" y="296" width="140" height="1.5" fill="#21262d"/>
  <text x="214" y="318" class="termw">&gt; ship itŠ</text>

  <text x="215" y="500" text-anchor="middle" class="muted">your workstation · iTerm2</text>

  <!-- ============ links ============ -->
  <path d="M 380 285 C 580 285, 620 125, 815 125" fill="none" stroke="#39c5cf" stroke-width="2" opacity="0.85" marker-end="url(#arrow)" stroke-dasharray="7 6">
    <animate attributeName="stroke-dashoffset" from="26" to="0" dur="1.2s" repeatCount="indefinite"/>
  </path>
  <path d="M 380 285 C 580 285, 620 280, 815 280" fill="none" stroke="#39c5cf" stroke-width="2" opacity="0.85" marker-end="url(#arrow)" stroke-dasharray="7 6">
    <animate attributeName="stroke-dashoffset" from="26" to="0" dur="1.2s" repeatCount="indefinite"/>
  </path>
  <path d="M 380 285 C 580 285, 620 435, 815 435" fill="none" stroke="#39c5cf" stroke-width="2" opacity="0.85" marker-end="url(#arrow)" stroke-dasharray="7 6">
    <animate attributeName="stroke-dashoffset" from="26" to="0" dur="1.2s" repeatCount="indefinite"/>
  </path>

  <rect x="512" y="140" width="172" height="24" rx="12" fill="#0d1117" stroke="#30363d"/>
  <text x="598" y="156" text-anchor="middle" class="link">parallel discovery</text>
  <rect x="512" y="252" width="172" height="24" rx="12" fill="#0d1117" stroke="#30363d"/>
  <text x="598" y="268" text-anchor="middle" class="link">persistent attach</text>
  <rect x="500" y="408" width="196" height="24" rx="12" fill="#0d1117" stroke="#30363d"/>
  <text x="598" y="424" text-anchor="middle" class="link">supervised tab · reconnect</text>

  <!-- ============ host cards ============ -->
  <g>
    <rect x="820" y="70" width="330" height="110" rx="10" fill="#161b22" stroke="#30363d"/>
    <circle cx="842" cy="96" r="4.5" fill="#3fb950"/>
    <text x="856" y="101" class="host">gpu / login-01</text>
    <text x="1132" y="100" text-anchor="end" class="tiny">0.4s</text>
    <rect x="840" y="118" width="118" height="26" rx="6" fill="#39c5cf" opacity="0.12"/>
    <rect x="840" y="118" width="118" height="26" rx="6" fill="none" stroke="#39c5cf" opacity="0.45"/>
    <text x="852" y="135" class="chip">codex · train</text>
    <rect x="968" y="118" width="64" height="26" rx="6" fill="#21262d" stroke="#30363d"/>
    <text x="980" y="135" class="chipn">bash</text>
    <text x="842" y="168" class="tiny">tmux server · sessions survive disconnects</text>
  </g>
  <g>
    <rect x="820" y="225" width="330" height="110" rx="10" fill="#161b22" stroke="#30363d"/>
    <circle cx="842" cy="251" r="4.5" fill="#3fb950"/>
    <text x="856" y="256" class="host">gpu / vscode-02</text>
    <text x="1132" y="255" text-anchor="end" class="tiny">0.6s</text>
    <rect x="840" y="273" width="112" height="26" rx="6" fill="#39c5cf" opacity="0.12"/>
    <rect x="840" y="273" width="112" height="26" rx="6" fill="none" stroke="#39c5cf" opacity="0.45"/>
    <text x="852" y="290" class="chip">codex · eval</text>
    <rect x="962" y="273" width="112" height="26" rx="6" fill="#39c5cf" opacity="0.12"/>
    <rect x="962" y="273" width="112" height="26" rx="6" fill="none" stroke="#39c5cf" opacity="0.45"/>
    <text x="974" y="290" class="chip">codex · data</text>
    <rect x="840" y="305" width="118" height="26" rx="6" fill="#21262d" stroke="#30363d"/>
    <text x="852" y="322" class="chipn">watch squeue</text>
  </g>
  <g>
    <rect x="820" y="380" width="330" height="110" rx="10" fill="#161b22" stroke="#30363d"/>
    <circle cx="842" cy="406" r="4.5" fill="#3fb950"/>
    <text x="856" y="411" class="host">cpu / login</text>
    <text x="1132" y="410" text-anchor="end" class="tiny">1.2s</text>
    <rect x="840" y="428" width="104" height="26" rx="6" fill="#21262d" stroke="#30363d"/>
    <text x="852" y="445" class="chipn">data-pipe</text>
    <rect x="954" y="428" width="64" height="26" rx="6" fill="#21262d" stroke="#30363d"/>
    <text x="966" y="445" class="chipn">bash</text>
  </g>

  <text x="600" y="536" text-anchor="middle" class="muted">BatchMode SSH · key auth · zero-dependency Python · remote sessions keep running</text>
</svg>
